<?xml version="1.0" encoding="utf-8"?>
<!-- Generator: Adobe Illustrator 18.0.0, SVG Export Plug-In . SVG Version: 6.00 Build 0)  -->
<!DOCTYPE svg PUBLIC "-//W3C//DTD SVG 1.1//EN" "http://www.w3.org/Graphics/SVG/1.1/DTD/svg11.dtd">
<svg version="1.1" id="Layer_1" xmlns="http://www.w3.org/2000/svg" xmlns:xlink="http://www.w3.org/1999/xlink" x="0px" y="0px"
	 viewBox="12.6 5.2 57.1 49.2" enable-background="new 12.6 5.2 57.1 49.2" xml:space="preserve">
<polygon fill="#BA141A" stroke="#ED1C24" stroke-width="1.5" stroke-miterlimit="10" points="41.1,53.2 13.8,21.5 26.5,6.3 
	55.7,6.3 68.6,21.5 "/>
<g>
	<path d="M13.6,28.9c1.2-0.3,3-0.4,4.7-0.4c2.6,0,4.3,0.5,5.5,1.6c1,0.8,1.5,2.2,1.5,3.6c0,2.5-1.6,4.2-3.6,4.9v0.1
		c1.5,0.5,2.4,1.9,2.8,3.9c0.6,2.7,1.1,4.5,1.5,5.2h-2.5c-0.3-0.5-0.7-2.2-1.3-4.6c-0.6-2.6-1.6-3.6-3.8-3.7h-2.3v8.3h-2.5V28.9z
		 M16.1,37.6h2.5c2.6,0,4.3-1.4,4.3-3.6c0-2.5-1.8-3.5-4.4-3.6c-1.2,0-2,0.1-2.4,0.2V37.6z"/>
	<path d="M40.2,44c0,1.4,0,2.7,0.1,3.7h-2.2L38,45.5H38c-0.7,1.1-2.1,2.5-4.5,2.5c-2.2,0-4.7-1.2-4.7-6v-8h2.5v7.6
		c0,2.6,0.8,4.4,3.1,4.4c1.7,0,2.8-1.2,3.3-2.3c0.1-0.4,0.2-0.8,0.2-1.3V34h2.5V44z"/>
	<path d="M54.4,38.7h-7.4v6.9h8.3v2.1H44.5V28.6h10.3v2.1h-7.8v6h7.4V38.7z"/>
	<path d="M59.1,34l2.7,7.7c0.5,1.2,0.8,2.4,1.1,3.5H63c0.3-1.1,0.7-2.3,1.2-3.5l2.7-7.7h2.6L64,47.7h-2.4L56.4,34H59.1z"/>
</g>
</svg>
